<?xml version="1.0" encoding="UTF-8" standalone="no"?>
<svg
   xmlns:dc="http://purl.org/dc/elements/1.1/"
   xmlns:cc="http://creativecommons.org/ns#"
   xmlns:rdf="http://www.w3.org/1999/02/22-rdf-syntax-ns#"
   xmlns:svg="http://www.w3.org/2000/svg"
   xmlns="http://www.w3.org/2000/svg"
   xmlns:sodipodi="http://sodipodi.sourceforge.net/DTD/sodipodi-0.dtd"
   xmlns:inkscape="http://www.inkscape.org/namespaces/inkscape"
   width="210mm"
   height="297mm"
   viewBox="0 0 210 297"
   version="1.1"
   id="svg8"
   inkscape:version="1.0.1 (3bc2e813f5, 2020-09-07)"
   sodipodi:docname="çizim.svg">
  <defs
     id="defs2" />
  <sodipodi:namedview
     id="base"
     pagecolor="#ffffff"
     bordercolor="#666666"
     borderopacity="1.0"
     inkscape:pageopacity="0.0"
     inkscape:pageshadow="2"
     inkscape:zoom="2"
     inkscape:cx="324.13631"
     inkscape:cy="247.31721"
     inkscape:document-units="mm"
     inkscape:current-layer="layer1"
     inkscape:document-rotation="0"
     showgrid="false"
     showguides="true"
     inkscape:object-paths="true"
     inkscape:snap-intersection-paths="true"
     inkscape:snap-smooth-nodes="true"
     inkscape:snap-text-baseline="true"
     inkscape:guide-bbox="true"
     inkscape:window-width="1920"
     inkscape:window-height="1017"
     inkscape:window-x="-8"
     inkscape:window-y="-8"
     inkscape:window-maximized="1">
    <sodipodi:guide
       position="46.566667,258.10625"
       orientation="0,-1"
       id="guide970" />
    <sodipodi:guide
       position="139.83229,181.90625"
       orientation="0,-1"
       id="guide1004" />
  </sodipodi:namedview>
  <metadata
     id="metadata5">
    <rdf:RDF>
      <cc:Work
         rdf:about="">
        <dc:format>image/svg+xml</dc:format>
        <dc:type
           rdf:resource="http://purl.org/dc/dcmitype/StillImage" />
        <dc:title></dc:title>
      </cc:Work>
    </rdf:RDF>
  </metadata>
  <g
     inkscape:label="Katman 1"
     inkscape:groupmode="layer"
     id="layer1">
    <g
       id="g872"
       transform="matrix(0.75093467,0,0,0.96740237,31.901817,6.1921174)">
      <g
         id="g836"
         transform="matrix(1,-0.88675131,0,1,10.715621,61.734512)">
        <path
           style="color:#000000;font-style:normal;font-variant:normal;font-weight:normal;font-stretch:normal;font-size:medium;line-height:normal;font-family:sans-serif;font-variant-ligatures:normal;font-variant-position:normal;font-variant-caps:normal;font-variant-numeric:normal;font-variant-alternates:normal;font-variant-east-asian:normal;font-feature-settings:normal;font-variation-settings:normal;text-indent:0;text-align:start;text-decoration:none;text-decoration-line:none;text-decoration-style:solid;text-decoration-color:#000000;letter-spacing:normal;word-spacing:normal;text-transform:none;writing-mode:lr-tb;direction:ltr;text-orientation:mixed;dominant-baseline:auto;baseline-shift:baseline;text-anchor:start;white-space:normal;shape-padding:0;shape-margin:0;inline-size:0;clip-rule:nonzero;display:inline;overflow:visible;visibility:visible;isolation:auto;mix-blend-mode:normal;color-interpolation:sRGB;color-interpolation-filters:linearRGB;solid-color:#000000;solid-opacity:1;vector-effect:none;fill:#000000;fill-opacity:1;fill-rule:evenodd;stroke:none;stroke-width:1.53467;stroke-linecap:round;stroke-linejoin:round;stroke-miterlimit:4;stroke-dasharray:none;stroke-dashoffset:0;stroke-opacity:1;color-rendering:auto;image-rendering:auto;shape-rendering:auto;text-rendering:auto;enable-background:accumulate;stop-color:#000000;stop-opacity:1;opacity:1"
           d="M 67.716797 36.195312 A 0.76741173 0.76741173 0 0 0 66.949219 36.962891 L 66.949219 71.962891 A 0.76741173 0.76741173 0 0 0 67.716797 72.730469 L 75.566406 72.730469 A 0.76741173 0.76741173 0 0 0 76.333984 71.962891 L 76.333984 36.962891 A 0.76741173 0.76741173 0 0 0 75.566406 36.195312 L 67.716797 36.195312 z M 68.484375 37.730469 L 74.798828 37.730469 L 74.798828 71.195312 L 68.484375 71.195312 L 68.484375 37.730469 z "
           id="path879"
           transform="matrix(0.955319,0.29557673,0,1,0,0)" />
      </g>
      <g
         id="g840"
         transform="translate(13.849998,-1.190625)">
        <path
           style="color:#000000;font-style:normal;font-variant:normal;font-weight:normal;font-stretch:normal;font-size:medium;line-height:normal;font-family:sans-serif;font-variant-ligatures:normal;font-variant-position:normal;font-variant-caps:normal;font-variant-numeric:normal;font-variant-alternates:normal;font-variant-east-asian:normal;font-feature-settings:normal;font-variation-settings:normal;text-indent:0;text-align:start;text-decoration:none;text-decoration-line:none;text-decoration-style:solid;text-decoration-color:#000000;letter-spacing:normal;word-spacing:normal;text-transform:none;writing-mode:lr-tb;direction:ltr;text-orientation:mixed;dominant-baseline:auto;baseline-shift:baseline;text-anchor:start;white-space:normal;shape-padding:0;shape-margin:0;inline-size:0;clip-rule:nonzero;display:inline;overflow:visible;visibility:visible;isolation:auto;mix-blend-mode:normal;color-interpolation:sRGB;color-interpolation-filters:linearRGB;solid-color:#000000;solid-opacity:1;vector-effect:none;fill:#000000;fill-opacity:1;fill-rule:evenodd;stroke:none;stroke-width:1.5;stroke-linecap:round;stroke-linejoin:round;stroke-miterlimit:4;stroke-dasharray:none;stroke-dashoffset:0;stroke-opacity:1;color-rendering:auto;image-rendering:auto;shape-rendering:auto;text-rendering:auto;enable-background:accumulate;stop-color:#000000;stop-opacity:1;opacity:1"
           d="M 69.056641 57.458984 A 0.750075 0.750075 0 0 0 68.306641 58.208984 L 68.306641 93.208984 A 0.750075 0.750075 0 0 0 69.056641 93.958984 L 76.556641 93.958984 A 0.750075 0.750075 0 0 0 77.306641 93.208984 L 77.306641 58.208984 A 0.750075 0.750075 0 0 0 76.556641 57.458984 L 69.056641 57.458984 z M 69.806641 58.958984 L 75.806641 58.958984 L 75.806641 92.458984 L 69.806641 92.458984 L 69.806641 58.958984 z "
           id="path883" />
      </g>
      <g
         id="g862"
         transform="matrix(-1,-0.88675131,0,1,162.59688,61.734512)">
        <path
           style="color:#000000;font-style:normal;font-variant:normal;font-weight:normal;font-stretch:normal;font-size:medium;line-height:normal;font-family:sans-serif;font-variant-ligatures:normal;font-variant-position:normal;font-variant-caps:normal;font-variant-numeric:normal;font-variant-alternates:normal;font-variant-east-asian:normal;font-feature-settings:normal;font-variation-settings:normal;text-indent:0;text-align:start;text-decoration:none;text-decoration-line:none;text-decoration-style:solid;text-decoration-color:#000000;letter-spacing:normal;word-spacing:normal;text-transform:none;writing-mode:lr-tb;direction:ltr;text-orientation:mixed;dominant-baseline:auto;baseline-shift:baseline;text-anchor:start;white-space:normal;shape-padding:0;shape-margin:0;inline-size:0;clip-rule:nonzero;display:inline;overflow:visible;visibility:visible;isolation:auto;mix-blend-mode:normal;color-interpolation:sRGB;color-interpolation-filters:linearRGB;solid-color:#000000;solid-opacity:1;vector-effect:none;fill:#000000;fill-opacity:1;fill-rule:evenodd;stroke:none;stroke-width:1.53467;stroke-linecap:round;stroke-linejoin:round;stroke-miterlimit:4;stroke-dasharray:none;stroke-dashoffset:0;stroke-opacity:1;color-rendering:auto;image-rendering:auto;shape-rendering:auto;text-rendering:auto;enable-background:accumulate;stop-color:#000000;stop-opacity:1;opacity:1"
           d="M 67.716797 36.195312 A 0.76741173 0.76741173 0 0 0 66.949219 36.962891 L 66.949219 71.962891 A 0.76741173 0.76741173 0 0 0 67.716797 72.730469 L 75.566406 72.730469 A 0.76741173 0.76741173 0 0 0 76.333984 71.962891 L 76.333984 36.962891 A 0.76741173 0.76741173 0 0 0 75.566406 36.195312 L 67.716797 36.195312 z M 68.484375 37.730469 L 74.798828 37.730469 L 74.798828 71.195312 L 68.484375 71.195312 L 68.484375 37.730469 z "
           id="path887"
           transform="matrix(0.955319,0.29557673,0,1,0,0)" />
      </g>
    </g>
    <path
       style="color:#000000;font-style:normal;font-variant:normal;font-weight:normal;font-stretch:normal;font-size:medium;line-height:normal;font-family:sans-serif;font-variant-ligatures:normal;font-variant-position:normal;font-variant-caps:normal;font-variant-numeric:normal;font-variant-alternates:normal;font-variant-east-asian:normal;font-feature-settings:normal;font-variation-settings:normal;text-indent:0;text-align:start;text-decoration:none;text-decoration-line:none;text-decoration-style:solid;text-decoration-color:#000000;letter-spacing:normal;word-spacing:normal;text-transform:none;writing-mode:lr-tb;direction:ltr;text-orientation:mixed;dominant-baseline:auto;baseline-shift:baseline;text-anchor:start;white-space:normal;shape-padding:0;shape-margin:0;inline-size:0;clip-rule:nonzero;display:inline;overflow:visible;visibility:visible;isolation:auto;mix-blend-mode:normal;color-interpolation:sRGB;color-interpolation-filters:linearRGB;solid-color:#000000;solid-opacity:1;vector-effect:none;fill:#000000;fill-opacity:1;fill-rule:nonzero;stroke:none;stroke-width:1.11229;stroke-linecap:round;stroke-linejoin:round;stroke-miterlimit:4;stroke-dasharray:none;stroke-dashoffset:0;stroke-opacity:1;color-rendering:auto;image-rendering:auto;shape-rendering:auto;text-rendering:auto;enable-background:accumulate;stop-color:#000000;stop-opacity:1;opacity:1"
       d="M 88.451172 98.951172 A 0.55614501 0.55614501 0 0 0 88.210938 98.998047 A 0.55614501 0.55614501 0 0 0 87.925781 99.732422 C 89.433826 103.15211 90.926406 105.69137 92.445312 107.39844 C 93.964219 109.1055 95.557324 110.00611 97.193359 109.95312 C 98.829395 109.90014 100.3701 108.90548 101.81641 107.17773 C 103.26272 105.44999 104.65418 102.95898 106.02734 99.724609 A 0.55614501 0.55614501 0 0 0 105.73242 98.996094 A 0.55614501 0.55614501 0 0 0 105.00195 99.291016 C 103.6544 102.46505 102.29713 104.87135 100.96484 106.46289 C 99.632553 108.05443 98.364684 108.80077 97.158203 108.83984 C 95.951723 108.87892 94.668945 108.22439 93.275391 106.6582 C 91.881837 105.09202 90.423748 102.64018 88.943359 99.283203 A 0.55614501 0.55614501 0 0 0 88.451172 98.951172 z "
       id="path891" />
    <ellipse
       style="fill:none;stroke:#000000;stroke-width:1.5;stroke-linecap:round;stroke-linejoin:round;stroke-miterlimit:4;stroke-dasharray:none"
       id="path893"
       cx="96.974998"
       cy="85.005852"
       rx="30.890104"
       ry="31.948437" />
    <path
       id="path911"
       style="opacity:0.282051;fill:#000000;stroke:#000000;stroke-width:5.63021;stroke-linecap:round;stroke-linejoin:round;stroke-miterlimit:4;stroke-dasharray:none"
       d="M 367.33398 383.94336 C 360.57058 383.70638 353.9843 387.73315 347.70508 395.36719 A 18.980029 18.245472 0 0 0 348.86328 401.64453 C 349.19455 401.18692 349.52355 400.74339 349.85352 400.30859 A 17.352429 15.420054 0 0 0 349.7832 401.70117 C 355.52396 408.15305 361.5451 411.55575 367.72852 411.35547 C 373.64413 411.16385 379.22918 407.70942 384.48828 401.69336 A 18.980029 18.245472 0 0 0 385.66602 395.37695 C 379.91361 388.25859 373.80446 384.17013 367.33398 383.94336 z M 367.1875 388.92188 C 371.86341 389.08568 376.76229 392.02971 381.89453 398.26172 C 376.89127 404.20501 372.12909 407.00163 367.5957 407.14844 C 363.03579 407.29622 358.18688 404.8218 352.91992 398.90234 C 352.59137 398.53309 352.26043 398.14458 351.92969 397.74609 C 357.38505 391.42168 362.4299 388.75495 367.1875 388.92188 z "
       transform="scale(0.26458333)" />
    <path
       style="opacity:0.282051;fill:#aa0000;fill-opacity:1;stroke:#000000;stroke-width:4.72441;stroke-linecap:round;stroke-linejoin:round;stroke-miterlimit:4;stroke-dasharray:none"
       d=""
       id="path928"
       transform="scale(0.26458333)" />
    <path
       style="opacity:0.282051;fill:#aa0000;fill-opacity:1;stroke:#000000;stroke-width:4.72441;stroke-linecap:round;stroke-linejoin:round;stroke-miterlimit:4;stroke-dasharray:none"
       d="m 362.83542,402.94221 c -2.57145,-1.30289 -6.42693,-4.38439 -6.4401,-5.14726 -0.0124,-0.72084 4.43163,-4.04506 6.64294,-4.969 3.8405,-1.60466 8.44921,-0.32142 12.78772,3.56059 l 2.18967,1.95927 -2.71488,2.09452 c -4.96744,3.83234 -8.45711,4.53274 -12.46535,2.50188 z"
       id="path930"
       transform="scale(0.26458333)" />
    <ellipse
       style="fill:none;stroke:#000000;stroke-width:1.5;stroke-linecap:round;stroke-linejoin:round;stroke-miterlimit:4;stroke-dasharray:none"
       id="ellipse932"
       cx="82.163963"
       cy="99.39431"
       rx="30.890104"
       ry="31.948437"
       transform="rotate(-9.1842867)" />
    <ellipse
       style="fill:none;stroke:#000000;stroke-width:1.21077;stroke-linecap:round;stroke-linejoin:round;stroke-miterlimit:4;stroke-dasharray:none"
       id="ellipse934"
       cx="7.9095588"
       cy="130.60771"
       rx="24.964157"
       ry="25.756292"
       transform="matrix(0.6711373,-0.74133307,0.70391185,0.71028734,0,0)" />
    <g
       aria-label="doğa schools"
       id="text938"
       style="font-style:normal;font-weight:normal;font-size:10.5833px;line-height:1.25;font-family:sans-serif;fill:#000000;fill-opacity:1;stroke:none;stroke-width:0.264583">
      <path
         d="m 70.16341,59.171299 -0.764742,0.599173 -0.37289,-0.47593 q -0.106394,0.542899 -0.340062,0.982006 -0.233667,0.439107 -0.652649,0.767378 -0.813555,0.637418 -1.784365,0.387057 -0.966742,-0.253549 -1.836818,-1.364052 -0.452567,-0.577625 -0.643623,-1.156632 -0.186988,-0.582194 -0.154904,-1.11939 0.03439,-0.525873 0.273006,-0.975422 0.242685,-0.452737 0.637259,-0.761885 0.357965,-0.280464 0.695128,-0.419898 0.333977,-0.143502 0.763357,-0.22389 l -1.542552,-1.968805 0.764742,-0.599173 z m -1.641192,-0.519466 -2.042925,-2.607446 q -0.417512,0.103914 -0.703011,0.242259 -0.285499,0.138344 -0.574311,0.364627 -0.642709,0.503561 -0.650094,1.23148 -0.0074,0.72792 0.636408,1.549611 0.634231,0.809488 1.242297,1.015815 0.604879,0.202259 1.215046,-0.275805 0.325422,-0.254967 0.547432,-0.658681 0.218823,-0.407781 0.329158,-0.86186 z"
         style="stroke-width:0.264583"
         id="path972" />
      <path
         d="m 74.623933,53.178479 q 0.694856,1.227772 0.46738,2.294688 -0.227476,1.066915 -1.28435,1.665051 -1.065868,0.603226 -2.097646,0.248983 -1.027281,-0.356788 -1.722136,-1.58456 -0.694856,-1.227773 -0.471877,-2.292143 0.224931,-1.071412 1.290799,-1.674639 1.056874,-0.598135 2.091197,-0.239395 1.031778,0.354242 1.726633,1.582015 z m -0.872483,0.49378 q -0.552321,-0.975922 -1.201847,-1.231795 -0.65207,-0.26037 -1.331168,0.123964 -0.688092,0.389424 -0.800568,1.082489 -0.110524,0.686022 0.441797,1.661943 0.534504,0.944441 1.194211,1.218303 0.657161,0.269366 1.340756,-0.117514 0.6746,-0.381789 0.784531,-1.07935 0.111883,-0.704605 -0.427712,-1.65804 z"
         style="stroke-width:0.264583"
         id="path974" />
      <path
         d="m 81.553061,52.767143 q 0.52859,1.369109 0.15425,2.250376 -0.37434,0.881266 -1.666316,1.380077 -0.429051,0.16565 -0.863016,0.261184 -0.427283,0.09849 -0.865397,0.140237 l -0.357357,-0.925595 0.04821,-0.01861 q 0.255259,0.0012 0.785732,-0.05963 0.532334,-0.05596 1.014415,-0.242085 0.462797,-0.178678 0.7237,-0.406815 0.260902,-0.228136 0.35332,-0.490932 0.09614,-0.253155 0.06608,-0.546218 -0.03006,-0.293063 -0.15662,-0.620878 l -0.189846,-0.491722 q -0.283204,0.48602 -0.595945,0.795104 -0.309782,0.302401 -0.888278,0.525749 -0.964162,0.372247 -1.801035,-0.102323 -0.833913,-0.481253 -1.323417,-1.749125 -0.268018,-0.694196 -0.268754,-1.270009 0.0022,-0.582496 0.198226,-1.079163 0.181205,-0.463258 0.556952,-0.824364 0.373885,-0.365927 0.817399,-0.53716 0.467619,-0.18054 0.818196,-0.205104 0.353536,-0.03125 0.779905,0.02572 l -0.03149,-0.253734 0.848462,-0.327577 z M 80.311727,52.24931 79.178235,49.313439 q -0.424842,-0.02432 -0.764252,0.02917 -0.33645,0.04681 -0.644981,0.165926 -0.747225,0.288491 -0.982709,0.955505 -0.235483,0.667014 0.133041,1.621533 0.349912,0.906312 0.848625,1.251089 0.498713,0.344777 1.236296,0.06001 0.395306,-0.152621 0.732914,-0.454688 0.340568,-0.308748 0.574558,-0.692676 z m -1.964712,-6.824893 q 0.264479,0.828508 -0.01363,1.528596 -0.273287,0.698227 -1.088004,1.012776 -0.814716,0.314549 -1.491128,-0.01702 -0.671591,-0.333426 -1.027666,-1.12657 l 0.800254,-0.308965 q 0.303533,0.614012 0.67071,0.804615 0.371997,0.188741 0.810691,0.01937 0.429051,-0.16565 0.57288,-0.553544 0.14865,-0.389755 -0.02954,-1.052158 z"
         style="stroke-width:0.264583"
         id="path976" />
      <path
         d="m 87.998474,51.824442 -0.941848,0.216214 -0.13759,-0.599357 q -0.10626,0.114528 -0.286992,0.320381 -0.176851,0.19966 -0.357504,0.336568 -0.210127,0.170184 -0.500018,0.316263 -0.288734,0.151116 -0.701736,0.245926 -0.760529,0.17459 -1.404997,-0.207668 -0.644467,-0.382258 -0.823682,-1.162934 -0.14684,-0.63965 0.03495,-1.094942 0.185672,-0.461486 0.64234,-0.804912 0.461705,-0.344583 1.163442,-0.590509 0.701736,-0.245925 1.518492,-0.475839 l -0.03353,-0.146062 q -0.074,-0.322344 -0.238402,-0.507288 -0.159367,-0.186101 -0.398654,-0.258419 -0.228058,-0.06959 -0.519358,-0.04514 -0.291301,0.02446 -0.598534,0.09499 -0.37271,0.08556 -0.807918,0.291509 -0.436363,0.200912 -0.882135,0.499421 l -0.05037,0.01156 -0.220839,-0.961994 q 0.259671,-0.139141 0.762667,-0.350048 0.502996,-0.210906 1.011694,-0.327685 0.594321,-0.136434 1.055631,-0.136293 0.465191,-0.0061 0.841877,0.15667 0.370493,0.158843 0.621106,0.48836 0.250612,0.329518 0.375485,0.873473 z m -1.259809,-1.168855 -0.359586,-1.566388 q -0.427368,0.124618 -1.00509,0.310262 -0.572685,0.184489 -0.893207,0.358808 -0.381373,0.209496 -0.576549,0.514101 -0.196332,0.299569 -0.09805,0.727682 0.110998,0.483515 0.459776,0.663248 0.347623,0.174697 0.94698,0.03711 0.498626,-0.114466 0.867692,-0.400668 0.367909,-0.291238 0.658037,-0.644151 z"
         style="stroke-width:0.264583"
         id="path978" />
      <path
         d="m 97.657499,49.473016 q 0.0122,0.790552 -0.636189,1.30705 -0.643227,0.516417 -1.774802,0.533886 -0.64071,0.0099 -1.180392,-0.131657 -0.534595,-0.146795 -0.899077,-0.322057 l -0.01683,-1.090239 0.05167,-7.98e-4 q 0.465208,0.339091 1.031603,0.537077 0.566315,0.192819 1.083016,0.184843 0.64071,-0.0099 0.99921,-0.222155 0.3585,-0.212264 0.35164,-0.656627 -0.0053,-0.341023 -0.204323,-0.51367 -0.199058,-0.172647 -0.75901,-0.288041 -0.207398,-0.04331 -0.544211,-0.100132 -0.331646,-0.0569 -0.606614,-0.12501 -0.762661,-0.189788 -1.088999,-0.572368 -0.321249,-0.387827 -0.330023,-0.956199 -0.0055,-0.356523 0.134306,-0.673944 0.144978,-0.317501 0.440836,-0.570144 0.285604,-0.247317 0.727813,-0.393686 0.447296,-0.151616 1.000167,-0.16015 0.516701,-0.008 1.04573,0.113062 0.534117,0.115793 0.888265,0.291214 l 0.01603,1.038569 -0.05167,7.98e-4 q -0.376253,-0.268108 -0.911326,-0.445905 -0.535154,-0.182964 -1.046688,-0.175067 -0.532202,0.0082 -0.895869,0.22056 -0.363747,0.207176 -0.357525,0.610203 0.0055,0.356524 0.230477,0.53394 0.219806,0.177495 0.70726,0.283671 0.269641,0.05786 0.601287,0.114756 0.336813,0.05682 0.559792,0.105059 0.679272,0.144561 1.051952,0.51609 0.372761,0.376695 0.382492,1.007071 z"
         style="stroke-width:0.264583"
         id="path980" />
      <path
         d="m 103.35752,51.319452 q -0.50753,0.180119 -0.95794,0.262355 -0.44527,0.08278 -0.93347,0.0311 -0.6218,-0.06582 -1.1218,-0.300622 -0.499444,-0.239941 -0.830281,-0.649109 -0.335976,-0.409711 -0.481697,-0.99675 -0.145721,-0.58704 -0.06576,-1.34246 0.149045,-1.408064 1.004741,-2.128141 0.860835,-0.719533 2.130145,-0.585174 0.49334,0.05222 0.95143,0.241016 0.46323,0.189339 0.83772,0.431642 l -0.11369,1.074033 -0.0514,-0.0054 q -0.4055,-0.391088 -0.8587,-0.626134 -0.44806,-0.234501 -0.89515,-0.281826 -0.82222,-0.08703 -1.35889,0.417381 -0.53098,0.499819 -0.644127,1.568714 -0.109881,1.038061 0.293327,1.64716 0.4089,0.604504 1.25168,0.693713 0.29292,0.03101 0.60427,-0.01398 0.31136,-0.04499 0.56594,-0.142758 0.22212,-0.08562 0.41963,-0.184227 0.19806,-0.103751 0.31522,-0.17969 l 0.0514,0.0054 z"
         style="stroke-width:0.264583"
         id="path982" />
      <path
         d="m 109.2379,53.055579 -0.94315,-0.233024 0.78831,-3.190669 q 0.0954,-0.386292 0.13334,-0.733571 0.0391,-0.352296 -0.0342,-0.572682 -0.0734,-0.241691 -0.28436,-0.400283 -0.20976,-0.163608 -0.58602,-0.25657 -0.38629,-0.09544 -0.8548,-0.0089 -0.46851,0.08652 -0.92793,0.287069 l -1.03373,4.183991 -0.94316,-0.233024 1.92865,-7.806102 0.94315,0.233024 -0.69783,2.824444 q 0.53196,-0.257149 1.05435,-0.346325 0.5224,-0.08918 1.01906,0.03353 0.90804,0.224348 1.24953,0.888928 0.34149,0.66458 0.0874,1.693019 z"
         style="stroke-width:0.264583"
         id="path984" />
      <path
         d="m 116.66845,52.877516 q -0.54162,1.302649 -1.52311,1.778808 -0.9815,0.47616 -2.10282,0.0099 -1.13088,-0.4702 -1.48543,-1.501869 -0.34979,-1.029686 0.19183,-2.332335 0.54162,-1.302649 1.51834,-1.780792 0.98348,-0.480931 2.11435,-0.01073 1.12133,0.466232 1.4739,1.502673 0.35456,1.031669 -0.18706,2.334318 z m -0.92569,-0.384889 q 0.43052,-1.035439 0.23325,-1.705095 -0.19529,-0.674428 -0.9158,-0.974006 -0.73006,-0.303547 -1.34595,0.03361 -0.60913,0.334365 -1.03965,1.369804 -0.41663,1.002038 -0.2273,1.690781 0.19132,0.68397 0.91661,0.985533 0.71574,0.297595 1.33361,-0.04433 0.62463,-0.344713 1.04523,-1.356294 z"
         style="stroke-width:0.264583"
         id="path986" />
      <path
         d="m 122.59781,56.354466 q -0.73543,1.203908 -1.77845,1.523532 -1.04303,0.319625 -2.07936,-0.313436 -1.04515,-0.638449 -1.2369,-1.71236 -0.18735,-1.071216 0.54808,-2.275124 0.73543,-1.203908 1.77404,-1.526226 1.04571,-0.324035 2.09086,0.314414 1.03634,0.633062 1.2254,1.711382 0.19175,1.07391 -0.54367,2.277818 z m -0.85553,-0.522612 q 0.58457,-0.956953 0.49259,-1.648974 -0.0893,-0.696431 -0.75519,-1.103207 -0.67472,-0.412163 -1.33512,-0.173691 -0.65329,0.236756 -1.23786,1.193708 -0.56571,0.926083 -0.4845,1.635744 0.0839,0.705251 0.75421,1.114721 0.66149,0.404081 1.32458,0.161199 0.67019,-0.244597 1.24129,-1.1795 z"
         style="stroke-width:0.264583"
         id="path988" />
      <path
         d="m 123.03638,60.378909 -0.76549,-0.598209 4.95113,-6.335707 0.7655,0.598209 z"
         style="stroke-width:0.264583"
         id="path990" />
      <path
         d="m 128.65473,63.260157 q -0.54974,0.568247 -1.37355,0.4759 -0.82009,-0.08875 -1.63346,-0.875643 -0.46054,-0.445543 -0.7426,-0.926932 -0.27475,-0.48151 -0.40898,-0.863017 l 0.75815,-0.783661 0.0371,0.03593 q 0.0898,0.568625 0.35091,1.108834 0.2647,0.536494 0.63611,0.895804 0.46054,0.445543 0.86424,0.548499 0.40371,0.102955 0.71272,-0.216452 0.23714,-0.245126 0.21817,-0.507941 -0.019,-0.262815 -0.33385,-0.740006 -0.11622,-0.17715 -0.31452,-0.455269 -0.19458,-0.274527 -0.34112,-0.516957 -0.40583,-0.673032 -0.36662,-1.174356 0.0465,-0.501446 0.44176,-0.909989 0.24792,-0.256269 0.5711,-0.382218 0.32688,-0.122356 0.71476,-0.09223 0.37687,0.02665 0.79329,0.235381 0.42372,0.208607 0.82112,0.593068 0.37141,0.359309 0.66041,0.818655 0.29631,0.459226 0.42311,0.833547 l -0.72221,0.746521 -0.0371,-0.03593 q -0.077,-0.455546 -0.33017,-0.95934 -0.2496,-0.507508 -0.61729,-0.863224 -0.38255,-0.370089 -0.78997,-0.476637 -0.40383,-0.110263 -0.68409,0.179432 -0.24792,0.256268 -0.21398,0.540762 0.0302,0.280901 0.30031,0.700361 0.15001,0.231409 0.34459,0.505936 0.1983,0.278119 0.32207,0.469763 0.37874,0.582116 0.38014,1.10835 -0.002,0.529948 -0.44055,0.98306 z"
         style="stroke-width:0.264583"
         id="path992" />
    </g>
    <g
       aria-label="kadıköy"
       id="text999"
       style="font-style:normal;font-weight:normal;font-size:10.5833px;line-height:1.25;font-family:sans-serif;fill:#000000;fill-opacity:1;stroke:none;stroke-width:0.264583">
      <path
         d="m 84.518045,124.54328 -1.169176,-0.52484 -1.077203,-3.25344 -0.820647,0.28869 -0.789369,1.75848 -0.886311,-0.39786 3.29292,-7.33564 0.886311,0.39786 -2.11204,4.70499 3.742926,-1.48622 1.117318,0.50155 -3.538781,1.3343 z"
         style="stroke-width:0.264583"
         id="path1006" />
      <path
         d="m 89.863039,125.93206 -0.936133,-0.23975 0.152568,-0.59572 q -0.146947,0.053 -0.401952,0.15311 -0.248717,0.0963 -0.472037,0.13516 -0.264773,0.0549 -0.589373,0.0518 -0.325883,0.002 -0.73638,-0.10324 -0.755915,-0.19359 -1.153342,-0.82882 -0.397428,-0.63522 -0.198704,-1.41116 0.162825,-0.63577 0.533155,-0.95701 0.376618,-0.32497 0.939924,-0.42075 0.568312,-0.0945 1.304692,0.009 0.736379,0.10324 1.56763,0.27345 l 0.03718,-0.14518 q 0.08205,-0.32038 0.02076,-0.56013 -0.05629,-0.23846 -0.23577,-0.41245 -0.170754,-0.16642 -0.440837,-0.27827 -0.270082,-0.11184 -0.575452,-0.19005 -0.370448,-0.0949 -0.851641,-0.11142 -0.479911,-0.0216 -1.012936,0.0393 l -0.05006,-0.0128 0.244879,-0.95615 q 0.294565,-0.005 0.838272,0.0386 0.543708,0.0432 1.04932,0.17272 0.590715,0.15128 1.0006,0.36295 0.416173,0.20793 0.676303,0.52527 0.256406,0.31105 0.328013,0.7188 0.07161,0.40776 -0.06686,0.94841 z m -0.583559,-1.61641 0.398729,-1.55689 q -0.436931,-0.0852 -1.035461,-0.18517 -0.593524,-0.0987 -0.958295,-0.0907 -0.434979,0.0113 -0.748104,0.19248 -0.311843,0.17619 -0.420821,0.6017 -0.12308,0.48059 0.104449,0.80024 0.228811,0.31466 0.824532,0.46722 0.4956,0.12693 0.954816,0.0418 0.460498,-0.0901 0.880155,-0.27068 z"
         style="stroke-width:0.264583"
         id="path1008" />
      <path
         d="m 96.386798,126.58604 -0.96889,-0.0713 0.04441,-0.60298 q -0.444016,0.33001 -0.912341,0.4976 -0.468326,0.1676 -0.999154,0.1285 -1.030734,-0.0759 -1.580416,-0.91436 -0.544528,-0.83807 -0.44091,-2.24503 0.0539,-0.73182 0.302174,-1.28869 0.25343,-0.5565 0.638639,-0.93229 0.379295,-0.36587 0.858308,-0.53786 0.484166,-0.17161 0.984072,-0.13479 0.453522,0.0334 0.79676,0.15713 0.343618,0.11857 0.715341,0.34803 l 0.183703,-2.49437 0.96889,0.0713 z m -0.864513,-1.48861 0.243293,-3.3035 q -0.378774,-0.20407 -0.68306,-0.29385 -0.304286,-0.0898 -0.670196,-0.11671 -0.81428,-0.06 -1.309554,0.47353 -0.495273,0.5335 -0.571943,1.57454 -0.07553,1.02558 0.235445,1.58737 0.311356,0.55664 1.084406,0.61358 0.412294,0.0304 0.848179,-0.1189 0.436265,-0.1544 0.82343,-0.41606 z"
         style="stroke-width:0.264583"
         id="path1010" />
      <path
         d="m 99.28274,126.42831 -0.97,0.0542 -0.322169,-5.76324 0.969999,-0.0542 z"
         style="stroke-width:0.264583"
         id="path1012" />
      <path
         d="m 106.36197,125.37008 -1.26099,0.22875 -2.72896,-2.07316 -0.51333,0.70235 0.34405,1.89657 -0.95592,0.1734 -1.435215,-7.9117 0.955915,-0.17341 0.92053,5.07448 2.24535,-3.34317 1.20506,-0.2186 -2.16298,3.10239 z"
         style="stroke-width:0.264583"
         id="path1014" />
      <path
         d="m 110.98037,120.64119 q 0.48216,1.32581 0.0813,2.34039 -0.40085,1.01458 -1.54212,1.42962 -1.15098,0.41858 -2.10993,-0.10148 -0.9541,-0.52182 -1.43626,-1.84763 -0.48216,-1.32581 -0.0862,-2.33862 0.39908,-1.01944 1.55006,-1.43802 1.14126,-0.41504 2.10199,0.10987 0.95895,0.52006 1.44111,1.84587 z m -0.94215,0.34263 q -0.38326,-1.05385 -0.9815,-1.41365 -0.60001,-0.36466 -1.33333,-0.098 -0.74304,0.27022 -0.96863,0.93512 -0.22249,0.65829 0.16076,1.71214 0.37089,1.01985 0.9762,1.39908 0.60354,0.37437 1.34172,0.10592 0.72847,-0.26492 0.95229,-0.93469 0.22691,-0.67638 -0.14751,-1.70595 z m -1.3904,-3.59641 -0.96643,0.35146 -0.3444,-0.94701 0.96643,-0.35146 z m -2.00571,0.72941 -0.96643,0.35147 -0.3444,-0.94701 0.96643,-0.35146 z"
         style="stroke-width:0.264583"
         id="path1016" />
      <path
         d="m 114.81195,115.19387 0.97272,8.53444 -0.90317,0.513 -0.25473,-2.62478 -4.71259,-3.6407 0.91665,-0.52066 3.65449,2.84509 -0.55856,-4.60359 z"
         style="stroke-width:0.264583"
         id="path1018" />
    </g>
    <path
       style="opacity:1;fill:#008000;fill-opacity:1;stroke:#000000;stroke-width:4.72441;stroke-linecap:round;stroke-linejoin:round;stroke-miterlimit:4;stroke-dasharray:none"
       d="m 362.13631,438.76176 c -28.91555,-2.10048 -53.87291,-13.36955 -74.04152,-33.43216 -18.27188,-18.17585 -29.58258,-40.61237 -34.03435,-67.51239 -1.25721,-7.59674 -1.25936,-25.57137 -0.004,-33.75 6.65117,-43.33356 34.72428,-78.73654 74.07991,-93.42213 12.75774,-4.76056 23.53922,-6.73123 37,-6.76296 17.874,-0.0421 33.20142,3.535 49.28893,11.50313 29.29557,14.51007 51.00437,40.35935 60.62003,72.18196 3.53197,11.68891 4.96981,21.45238 4.97024,33.75 5e-4,19.81392 -4.26683,37.67817 -13.1472,55.03518 -17.17336,33.56595 -50.08643,57.10223 -86.232,61.66486 -4.69264,0.59235 -14.92562,1.00416 -18.5,0.74451 z m 15.5,-9.70199 c 33.85621,-2.774 61.91176,-22.87309 76.66988,-54.92655 11.3597,-24.67237 11.91401,-55.46281 1.47291,-81.81601 -15.5023,-39.12759 -51.6676,-64.75 -91.39279,-64.75 -40.06349,0 -74.94991,26.17211 -87.64222,65.75 -3.73812,11.65643 -5.14234,22.28221 -4.71947,35.71242 1.5162,48.15413 35.18297,89.34179 80.53125,98.5213 8.94851,1.81137 16.12142,2.2429 25.08044,1.50884 z"
       id="path1021"
       transform="scale(0.26458333)" />
    <path
       style="opacity:1;fill:#008000;fill-opacity:1;stroke:#000000;stroke-width:4.72441;stroke-linecap:round;stroke-linejoin:round;stroke-miterlimit:4;stroke-dasharray:none"
       d="m 358.15002,423.30409 c -27.94106,-4.53359 -51.86665,-20.9512 -67.01732,-45.98688 -12.73913,-21.05075 -17.31783,-48.12171 -12.26342,-72.50579 6.63392,-32.00414 29.30758,-58.04961 58.9694,-67.73875 3.1887,-1.0416 6.79596,-2.05832 8.01614,-2.25939 2.16739,-0.35715 2.05218,-0.24034 -5,5.06918 -3.97018,2.98911 -7.4958,6.01961 -7.83471,6.73445 -0.478,1.00823 -0.62222,15.89225 -0.64308,66.36979 l -0.0269,65.07008 3.99004,7.88022 c 2.19452,4.33411 5.24016,9.77694 6.76808,12.09517 1.52792,2.31823 2.77804,4.36642 2.77804,4.55152 0,0.97844 9.63551,9.44768 12.5,10.98701 3.09415,1.66275 3.49015,1.74651 8.25769,1.74651 4.65967,0 5.24207,-0.11529 8.38012,-1.65885 4.69111,-2.3075 11.17407,-8.81553 15.03301,-15.09115 1.60645,-2.6125 4.7002,-8.37298 6.875,-12.80107 l 3.9542,-8.05106 v -64.59 c 0,-54.04047 -0.11363,-64.86194 -0.69568,-66.25498 -0.50206,-1.20161 -2.38407,-2.90057 -6.76251,-6.10476 -3.33676,-2.44189 -5.84893,-4.51243 -5.58259,-4.60121 0.26634,-0.0888 2.52063,0.53778 5.00953,1.39235 29.73039,10.208 53.11669,35.71901 61.81729,67.43356 2.69304,9.81639 3.44564,15.86836 3.39832,27.32717 -0.0457,11.04655 -0.92598,17.54142 -3.65604,26.97256 -8.18585,28.27854 -28.94352,50.70103 -55.57387,60.03107 -9.35453,3.27739 -15.4081,4.3127 -26.45445,4.52436 -6.94782,0.13313 -11.03937,-0.0224 -14.23629,-0.54111 z"
       id="path1023"
       transform="scale(0.26458333)" />
    <path
       style="opacity:1;fill:#00e200;fill-opacity:1;stroke:#000000;stroke-width:4.72441;stroke-linecap:round;stroke-linejoin:round;stroke-miterlimit:4;stroke-dasharray:none"
       d="m 353.88631,419.82068 c -18.2448,-4.27927 -33.09024,-12.38875 -45.51713,-24.86423 -17.09397,-17.16079 -26.57384,-38.07401 -28.58182,-63.05338 -2.9593,-36.814 16.15947,-71.85118 47.8595,-87.70762 6.94044,-3.47162 8.09179,-3.74691 5.27566,-1.26141 -2.0042,1.7689 -2.24872,2.23456 -2.58281,4.91852 -0.20296,1.63056 -0.38776,31.87715 -0.41066,67.21465 l -0.0417,64.25 4.66462,8.75 c 6.83154,12.81477 10.44229,18.08773 15.06486,22 8.34221,7.06035 11.49264,8.36538 18.96198,7.8548 5.82337,-0.39807 10.16114,-2.68001 15.77187,-8.29701 5.48046,-5.48659 8.14671,-9.51124 14.18798,-21.41648 l 4.87589,-9.60869 -0.13915,-65.89131 c -0.11348,-53.73779 -0.26189,-66.10672 -0.80465,-67.05914 -0.36603,-0.6423 -0.57783,-1.2555 -0.47066,-1.36267 0.10716,-0.10717 2.54414,1.16141 5.41551,2.81906 22.30038,12.8741 38.57105,34.69906 45.209,60.64192 2.37725,9.29093 2.93943,15.13236 2.62698,27.29627 -0.28884,11.24453 -0.88476,15.23021 -3.63258,24.29551 -6.09456,20.10653 -18.49682,37.04323 -35.48274,48.45574 -4.38282,2.94473 -14.25116,7.77855 -19.43522,9.51997 -8.71785,2.92848 -11.64672,3.34294 -25.06478,3.54688 -11.88941,0.18071 -12.75645,0.12984 -17.75,-1.04138 z"
       id="path1025"
       transform="scale(0.26458333)" />
  </g>
</svg>
